# xmcd
# 
# Track frame offsets:
#     150
#     15470
#     28227
#     42865
#     60283
#     75798
#     89337
#     104176
#     118625
#     135552
#     147676
#     162341
# 
# Disc length: 2388
# 
# Revision: 0
# Processed by: cddbd v1.5.2PL0 Copyright (c) Steve Scherf et al.
# Submitted via: fre:ac v1.0.27
# 
DISCID=9a09520c
DTITLE=Marty Bishop - The Weekend Musician
DYEAR=2012
DGENRE=Country
TTITLE0=I Just Want to Dance With You.L
TTITLE1=The Entertainer.L
TTITLE2=I Still Miss Someone.L
TTITLE3=Let's Pretend.L
TTITLE4=Mary of the Wild Moor.L
TTITLE5=Dance With This Old Cowboy.L
TTITLE6=Ramblin Fever.L
TTITLE7=Silver Wings.L
TTITLE8=Thank You lord for the Sun.L
TTITLE9=The Weekend Musician.L
TTITLE10=Long Black Veil.L
TTITLE11=When the Old Man Played the Fiddle.L
EXTD=
EXTT0=
EXTT1=
EXTT2=
EXTT3=
EXTT4=
EXTT5=
EXTT6=
EXTT7=
EXTT8=
EXTT9=
EXTT10=
EXTT11=
PLAYORDER=
